<svg xmlns="http://www.w3.org/2000/svg"
    xmlns:xlink="http://www.w3.org/1999/xlink" version="1.1" width="370" height="80" viewBox="0 0 370 80" xml:space="preserve">
    <desc>Created with Fabric.js 4.6.0</desc>
    <defs>
    </defs>
    <g transform="matrix(1 0 0 1 222.77 40.32)" id="QxfIJyE8BJ_bO-BJK5J65">
        <g style="" vector-effect="non-scaling-stroke">
            <g transform="matrix(1 0 0 1 -38.04 -0.55)" id="ptKa6I9S10rkQjzjRIUO8">
                <path style="stroke: rgb(255,255,255); stroke-width: 2; stroke-dasharray: none; stroke-linecap: butt; stroke-dashoffset: 0; stroke-linejoin: miter; stroke-miterlimit: 4; fill: rgb(90,14,248); fill-rule: nonzero; opacity: 1;" vector-effect="non-scaling-stroke" transform=" translate(-102.16, -37.2)" d="M 29.9 21.4409465 L 29.9 2.6 L 45.25 2.6 L 45.25 60.25 L 29.9 60.25 L 29.9 56.6501566 C 28.7994226 57.6995402 27.5641168 58.5549307 26.1963156 59.2135017 C 24.0312864 60.2559231 21.5956181 60.775 18.9 60.775 C 14.9705242 60.775 11.4891782 59.8519158 8.47673697 58.0021712 C 5.46419466 56.1523645 3.12386419 53.5475899 1.4666665 50.2068898 C -0.179861283 46.8876989 -1 43.073403 -1 38.775 C -1 34.5259087 -0.192118586 30.7731692 1.43057281 27.5277864 C 3.06360471 24.2617226 5.36749939 21.719494 8.33102187 19.9202125 C 11.2927879 18.1219974 14.7224838 17.225 18.6 17.225 C 21.3459093 17.225 23.8317236 17.756725 26.0466419 18.8241555 C 27.4681755 19.5092319 28.7533846 20.3822283 29.9 21.4409465 Z M 22.2 48.275 C 24.5116794 48.275 26.3323022 47.462222 27.7393134 45.8133807 C 29.1758003 44.1299976 29.9 41.9234516 29.9 39.15 C 29.9 36.3275056 29.1760347 34.110362 27.7436368 32.4541519 C 26.33702 30.8277513 24.5145577 30.025 22.2 30.025 C 19.8862146 30.025 18.0506378 30.8396051 16.6181891 32.4924305 C 15.1596827 34.1753225 14.425 36.3793706 14.425 39.15 C 14.425 41.9206294 15.1596827 44.1246775 16.6181891 45.8075695 C 18.0506378 47.4603949 19.8862146 48.275 22.2 48.275 Z M 75.7541168 33.875 C 75.6460871 32.4974505 75.1186903 31.4633764 74.1664184 30.7087459 C 73.0397273 29.8158963 71.3425335 29.35 69.05 29.35 C 67.4405848 29.35 65.6107258 29.613117 63.5630669 30.1430993 C 61.5044636 30.6759143 59.429819 31.4523894 57.3388353 32.4735675 L 56.3783067 32.9426629 L 51.9356232 22.0626216 L 52.8111971 21.6646335 C 56.1672719 20.139145 59.3897865 19.0055331 62.479431 18.2650398 C 65.5816334 17.5215367 68.797348 17.15 72.125 17.15 C 77.9416263 17.15 82.516157 18.5039559 85.8139632 21.2432627 C 89.1497206 24.0140934 90.8469056 27.9068432 90.9 32.85 L 90.9 60.25 L 75.775 60.25 L 75.775 57.1821882 C 72.9724518 59.6291675 69.2137168 60.85 64.55 60.85 C 60.010008 60.85 56.3766577 59.6031307 53.7028245 57.0913481 C 51.0198655 54.5709926 49.675 51.2427901 49.675 47.175 C 49.675 43.0315099 51.1415497 39.7420526 54.0610299 37.3955546 C 56.9314228 35.0885098 60.9830927 33.9271191 66.2 33.875 L 75.7541168 33.875 Z M 75.775 45.3924819 L 75.775 43 L 68.825 43 C 65.5744098 43 64.2 44.026226 64.2 46.2 C 64.2 47.3132534 64.5641957 48.1443666 65.3084422 48.7741137 C 66.0870614 49.4329453 67.1961478 49.775 68.675 49.775 C 70.486929 49.775 72.0472831 49.3403299 73.3800116 48.4740564 C 74.6371089 47.6569432 75.422684 46.6387871 75.775 45.3924819 Z M 105.425 15.25 C 103.112366 15.25 101.166284 14.4715674 99.6488159 12.9254677 C 98.1360155 11.3841239 97.375 9.43132945 97.375 7.125 C 97.375 4.76774883 98.1365358 2.79925064 99.6553932 1.28039322 C 101.172864 -0.237077767 103.116157 -1 105.425 -1 C 107.733843 -1 109.677136 -0.237077767 111.194607 1.28039322 C 112.713464 2.79925064 113.475 4.76774883 113.475 7.125 C 113.475 9.43132945 112.713985 11.3841239 111.201184 12.9254677 C 109.683716 14.4715674 107.737634 15.25 105.425 15.25 Z M 113.175 17.675 L 113.175 60.25 L 97.9 60.25 L 97.9 17.675 L 113.175 17.675 Z M 136.775 60.85 C 133.225881 60.85 129.826205 60.3477751 126.579316 59.3427859 C 123.316299 58.3328043 120.408658 56.8400424 117.862176 54.8652198 L 117.220324 54.3674569 L 122.287275 43.962111 L 123.246064 44.6290948 C 125.471791 46.1774261 127.802496 47.3729692 130.239932 48.2176252 C 132.663802 49.0575803 134.941721 49.475 137.075 49.475 C 138.219754 49.475 139.096121 49.2955032 139.706667 48.9606876 C 140.170896 48.7061108 140.35 48.4230104 140.35 48 C 140.35 47.4119143 140.026344 46.9659888 139.22329 46.5733844 C 138.167124 46.0570366 136.457498 45.4750363 134.089195 44.8332878 C 131.200791 43.971834 128.81155 43.1203491 126.917717 42.2758019 C 124.925925 41.3875705 123.190691 40.0558792 121.719279 38.2901844 C 120.185116 36.449189 119.425 34.0720993 119.425 31.2 C 119.425 26.7903155 121.118897 23.2795772 124.475 20.7625 C 127.760171 18.2986214 131.970482 17.075 137.075 17.075 C 140.115871 17.075 143.118542 17.487384 146.080576 18.3116022 C 149.043952 19.1361939 151.841025 20.3478292 154.469415 21.9454781 L 155.267063 22.4303225 L 149.876414 32.8522427 L 148.985993 32.3858315 C 143.866367 29.7041229 139.709838 28.375 136.55 28.375 C 135.570038 28.375 134.821619 28.5469341 134.293978 28.8672875 C 133.896098 29.1088575 133.725 29.4205005 133.725 29.925 C 133.725 30.4041076 134.034049 30.8114906 134.822214 31.2055728 C 135.850108 31.71952 137.545201 32.3006946 139.90627 32.9403715 C 142.841883 33.8008095 145.290863 34.6509736 147.256419 35.493355 C 149.327586 36.3809978 151.117477 37.7267805 152.617282 39.5211899 C 154.177189 41.3875069 154.95 43.8025427 154.95 46.725 C 154.95 51.1400038 153.21369 54.6536386 149.778313 57.1693087 C 146.418624 59.6295535 142.074884 60.85 136.775 60.85 Z M 174.245376 58.2317371 L 157.039488 17.675 L 172.973561 17.675 L 181.895776 42.0208908 L 189.849689 17.675 L 205.31414 17.675 L 204.781474 19.038808 L 187.375935 63.6026839 C 185.757683 67.5700099 183.568342 70.5374905 180.799518 72.4809918 C 178.021814 74.4307262 174.596162 75.4 170.55 75.4 C 168.191007 75.4 165.980522 75.0447434 163.922889 74.3324861 C 161.864533 73.6199781 159.867604 72.5032741 157.933118 70.9870559 L 157.237482 70.4418277 L 163.847452 59.4549866 L 164.744136 60.2100888 C 165.620072 60.9477192 166.434475 61.4680322 167.18075 61.7753219 C 167.908931 62.0751613 168.67953 62.225 169.5 62.225 C 171.319186 62.225 172.603628 61.4148133 173.487783 59.6886473 L 174.245376 58.2317371 Z" stroke-linecap="round" />
            </g>
            <g transform="matrix(1 0 0 1 104.65 -4.3)" id="YLnRxdl7VaKrMIMy21b_x">
                <path style="stroke: rgb(255,255,255); stroke-width: 2; stroke-dasharray: none; stroke-linecap: butt; stroke-dashoffset: 0; stroke-linejoin: miter; stroke-miterlimit: 4; fill: rgb(45,55,72); fill-rule: nonzero; opacity: 1;" vector-effect="non-scaling-stroke" transform=" translate(-244.85, -33.45)" d="M 234.45 61.225 C 229.498144 61.225 225.130191 60.2658649 221.35793 58.3407111 C 217.562077 56.4035172 214.618517 53.6307881 212.546209 50.03704 C 210.480166 46.4541543 209.45 42.2943717 209.45 37.575 L 209.45 5.675 L 225.175 5.675 L 225.175 37.575 C 225.175 40.6252 226.057217 43.0230192 227.816 44.8268999 C 229.57387 46.6298435 231.789383 47.525 234.525 47.525 C 237.203064 47.525 239.322545 46.648356 240.953053 44.8838339 C 242.595916 43.1059416 243.425 40.6868322 243.425 37.575 L 243.425 5.675 L 259.15 5.675 L 259.15 37.575 C 259.15 42.2905384 258.146788 46.4467009 256.134245 50.0274591 C 254.113023 53.6236609 251.219273 56.3990293 247.472092 58.3381302 C 243.748012 60.2652764 239.403317 61.225 234.45 61.225 Z M 280.25 60.25 L 264.525 60.25 L 264.525 5.675 L 280.25 5.675 L 280.25 60.25 Z" stroke-linecap="round" />
            </g>
        </g>
    </g>
    <g transform="matrix(0.03 0 0 0.03 36.95 38.94)" id="Ydu_GM4qF5Db4twqdQaZJ">
        <g style="" vector-effect="non-scaling-stroke">
            <g transform="matrix(4.47 0 0 4.47 0 0)" id="6OT_CLfObz4uAtk_uqp2h">
                <path style="stroke: none; stroke-width: 1; stroke-dasharray: none; stroke-linecap: butt; stroke-dashoffset: 0; stroke-linejoin: miter; stroke-miterlimit: 4; fill: rgb(97,218,251); fill-rule: nonzero; opacity: 1;" vector-effect="non-scaling-stroke" transform=" translate(-421, -296.45)" d="M 666.3 296.5 C 666.3 264 625.5999999999999 233.2 563.1999999999999 214.1 C 577.5999999999999 150.5 571.1999999999999 99.89999999999999 542.9999999999999 83.69999999999999 C 536.4999999999999 79.89999999999999 528.8999999999999 78.1 520.5999999999999 78.1 L 520.5999999999999 100.39999999999999 C 525.1999999999999 100.39999999999999 528.8999999999999 101.3 531.9999999999999 102.99999999999999 C 545.5999999999999 110.79999999999998 551.4999999999999 140.5 546.8999999999999 178.7 C 545.7999999999998 188.1 543.9999999999999 198 541.7999999999998 208.1 C 522.1999999999998 203.29999999999998 500.79999999999984 199.6 478.29999999999984 197.2 C 464.79999999999984 178.7 450.79999999999984 161.89999999999998 436.6999999999998 147.2 C 469.29999999999984 116.89999999999999 499.8999999999998 100.29999999999998 520.6999999999998 100.29999999999998 L 520.6999999999998 77.99999999999999 C 493.1999999999998 77.99999999999999 457.1999999999998 97.6 420.79999999999984 131.6 C 384.39999999999986 97.8 348.39999999999986 78.39999999999999 320.89999999999986 78.39999999999999 L 320.89999999999986 100.69999999999999 C 341.59999999999985 100.69999999999999 372.29999999999984 117.19999999999999 404.89999999999986 147.29999999999998 C 390.89999999999986 161.99999999999997 376.89999999999986 178.7 363.59999999999985 197.2 C 340.99999999999983 199.6 319.59999999999985 203.29999999999998 299.99999999999983 208.2 C 297.6999999999998 198.2 295.99999999999983 188.5 294.79999999999984 179.2 C 290.09999999999985 141 295.89999999999986 111.29999999999998 309.39999999999986 103.39999999999999 C 312.39999999999986 101.6 316.29999999999984 100.8 320.89999999999986 100.8 L 320.89999999999986 78.5 C 312.4999999999999 78.5 304.89999999999986 80.3 298.29999999999984 84.1 C 270.1999999999998 100.3 263.89999999999986 150.8 278.39999999999986 214.2 C 216.19999999999987 233.39999999999998 175.69999999999987 264.09999999999997 175.69999999999987 296.5 C 175.69999999999987 329 216.39999999999986 359.8 278.79999999999984 378.9 C 264.39999999999986 442.5 270.79999999999984 493.09999999999997 298.99999999999983 509.29999999999995 C 305.49999999999983 513.0999999999999 313.09999999999985 514.9 321.49999999999983 514.9 C 348.99999999999983 514.9 384.99999999999983 495.29999999999995 421.39999999999986 461.29999999999995 C 457.79999999999984 495.09999999999997 493.79999999999984 514.5 521.2999999999998 514.5 C 529.6999999999998 514.5 537.2999999999998 512.7 543.8999999999999 508.9 C 571.9999999999999 492.7 578.2999999999998 442.2 563.7999999999998 378.79999999999995 C 625.7999999999998 359.69999999999993 666.2999999999998 328.9 666.2999999999998 296.49999999999994 z M 536.0999999999999 229.8 C 532.3999999999999 242.70000000000002 527.8 256 522.5999999999999 269.3 C 518.4999999999999 261.3 514.1999999999999 253.3 509.4999999999999 245.3 C 504.89999999999986 237.3 499.9999999999999 229.5 495.0999999999999 221.9 C 509.2999999999999 224 522.9999999999999 226.6 536.0999999999999 229.8 z M 490.2999999999999 336.3 C 482.4999999999999 349.8 474.4999999999999 362.6 466.1999999999999 374.5 C 451.2999999999999 375.8 436.1999999999999 376.5 420.9999999999999 376.5 C 405.89999999999986 376.5 390.7999999999999 375.8 375.9999999999999 374.6 C 367.6999999999999 362.70000000000005 359.5999999999999 350 351.7999999999999 336.6 C 344.1999999999999 323.5 337.2999999999999 310.20000000000005 330.9999999999999 296.8 C 337.1999999999999 283.40000000000003 344.1999999999999 270 351.6999999999999 256.90000000000003 C 359.4999999999999 243.40000000000003 367.4999999999999 230.60000000000002 375.7999999999999 218.70000000000005 C 390.6999999999999 217.40000000000003 405.7999999999999 216.70000000000005 420.9999999999999 216.70000000000005 C 436.0999999999999 216.70000000000005 451.1999999999999 217.40000000000003 465.9999999999999 218.60000000000005 C 474.2999999999999 230.50000000000006 482.39999999999986 243.20000000000005 490.1999999999999 256.6 C 497.7999999999999 269.70000000000005 504.6999999999999 283 510.9999999999999 296.40000000000003 C 504.6999999999999 309.8 497.7999999999999 323.20000000000005 490.2999999999999 336.3 z M 522.5999999999999 323.3 C 527.9999999999999 336.7 532.5999999999999 350.1 536.3999999999999 363.1 C 523.2999999999998 366.3 509.4999999999999 369 495.1999999999999 371.1 C 500.09999999999985 363.40000000000003 504.9999999999999 355.5 509.59999999999985 347.40000000000003 C 514.1999999999998 339.40000000000003 518.4999999999999 331.3 522.5999999999999 323.3 z M 421.19999999999993 430 C 411.8999999999999 420.4 402.5999999999999 409.7 393.3999999999999 398 C 402.3999999999999 398.4 411.5999999999999 398.7 420.8999999999999 398.7 C 430.2999999999999 398.7 439.5999999999999 398.5 448.69999999999993 398 C 439.69999999999993 409.7 430.3999999999999 420.4 421.19999999999993 430 z M 346.79999999999995 371.1 C 332.59999999999997 369 318.9 366.40000000000003 305.79999999999995 363.20000000000005 C 309.49999999999994 350.30000000000007 314.09999999999997 337.00000000000006 319.29999999999995 323.70000000000005 C 323.4 331.70000000000005 327.69999999999993 339.70000000000005 332.4 347.70000000000005 C 337.1 355.70000000000005 341.9 363.50000000000006 346.79999999999995 371.1 z M 420.69999999999993 163.00000000000003 C 429.99999999999994 172.60000000000002 439.29999999999995 183.30000000000004 448.49999999999994 195.00000000000003 C 439.49999999999994 194.60000000000002 430.29999999999995 194.30000000000004 420.99999999999994 194.30000000000004 C 411.59999999999997 194.30000000000004 402.29999999999995 194.50000000000003 393.19999999999993 195.00000000000003 C 402.19999999999993 183.30000000000004 411.49999999999994 172.60000000000002 420.69999999999993 163.00000000000003 z M 346.69999999999993 221.90000000000003 C 341.79999999999995 229.60000000000002 336.8999999999999 237.50000000000003 332.29999999999995 245.60000000000002 C 327.69999999999993 253.60000000000002 323.4 261.6 319.29999999999995 269.6 C 313.9 256.20000000000005 309.29999999999995 242.8 305.49999999999994 229.8 C 318.59999999999997 226.70000000000002 332.3999999999999 224 346.69999999999993 221.9 z M 256.19999999999993 347.1 C 220.79999999999993 332 197.89999999999992 312.20000000000005 197.89999999999992 296.5 C 197.89999999999992 280.79999999999995 220.79999999999993 260.9 256.19999999999993 245.9 C 264.79999999999995 242.20000000000002 274.19999999999993 238.9 283.8999999999999 235.8 C 289.5999999999999 255.4 297.0999999999999 275.8 306.3999999999999 296.7 C 297.19999999999993 317.5 289.7999999999999 337.8 284.19999999999993 357.3 C 274.29999999999995 354.2 264.8999999999999 350.8 256.19999999999993 347.1 z M 309.99999999999994 490 C 296.3999999999999 482.2 290.49999999999994 452.5 295.09999999999997 414.3 C 296.2 404.90000000000003 297.99999999999994 395 300.2 384.90000000000003 C 319.8 389.70000000000005 341.2 393.40000000000003 363.7 395.8 C 377.2 414.3 391.2 431.1 405.3 445.8 C 372.7 476.1 342.1 492.7 321.3 492.7 C 316.8 492.59999999999997 313 491.7 310 490 z M 547.1999999999999 413.8 C 551.9 452 546.0999999999999 481.70000000000005 532.5999999999999 489.6 C 529.5999999999999 491.40000000000003 525.6999999999999 492.20000000000005 521.0999999999999 492.20000000000005 C 500.3999999999999 492.20000000000005 469.69999999999993 475.70000000000005 437.0999999999999 445.6 C 451.0999999999999 430.90000000000003 465.0999999999999 414.20000000000005 478.3999999999999 395.70000000000005 C 500.99999999999994 393.30000000000007 522.3999999999999 389.6 541.9999999999999 384.70000000000005 C 544.2999999999998 394.80000000000007 546.0999999999999 404.50000000000006 547.1999999999999 413.80000000000007 z M 585.6999999999999 347.1 C 577.0999999999999 350.8 567.6999999999999 354.1 557.9999999999999 357.20000000000005 C 552.2999999999998 337.6 544.7999999999998 317.20000000000005 535.4999999999999 296.30000000000007 C 544.6999999999999 275.50000000000006 552.0999999999999 255.20000000000007 557.6999999999999 235.70000000000007 C 567.5999999999999 238.80000000000007 576.9999999999999 242.20000000000007 585.8 245.90000000000006 C 621.1999999999999 261.00000000000006 644.0999999999999 280.80000000000007 644.0999999999999 296.50000000000006 C 643.9999999999999 312.20000000000005 621.0999999999999 332.1000000000001 585.6999999999999 347.1000000000001 z" stroke-linecap="round" />
            </g>
            <g transform="matrix(4.47 0 0 4.47 -0.45 0.22)" id="ci24TwqynJ2LLuCbwDIHQ">
                <path style="stroke: none; stroke-width: 1; stroke-dasharray: none; stroke-linecap: butt; stroke-dashoffset: 0; stroke-linejoin: miter; stroke-miterlimit: 4; fill: rgb(97,218,251); fill-rule: nonzero; opacity: 1;" vector-effect="non-scaling-stroke" transform=" translate(-45.7, -45.7)" d="M 0 45.7 C 0 20.460590000000003 20.46059 0 45.7 0 C 70.93941000000001 0 91.4 20.46059 91.4 45.7 C 91.4 70.93941000000001 70.93941000000001 91.4 45.7 91.4 C 20.460590000000003 91.4 0 70.93941000000001 0 45.7 z" stroke-linecap="round" />
            </g>
        </g>
    </g>
</svg>