<svg fill="none" viewBox="0 0 24 24" stroke-width="1.5" stroke="#13B7F4" class="w-6 h-6" xmlns="http://www.w3.org/2000/svg">
  <path stroke-linecap="round" stroke-linejoin="round" d="M15.666 3.888A2.25 2.25 0 0013.5 2.25h-3c-1.03 0-1.9.693-2.166 1.638m7.332 0c.055.194.084.4.084.612v0a.75.75 0 01-.75.75H9a.75.75 0 01-.75-.75v0c0-.212.03-.418.084-.612m7.332 0c.646.049 1.288.11 1.927.184 1.1.128 1.907 1.077 1.907 2.185V19.5a2.25 2.25 0 01-2.25 2.25H6.75A2.25 2.25 0 014.5 19.5V6.257c0-1.108.806-2.057 1.907-2.185a48.208 48.208 0 011.927-.184"/>
  <path stroke-linecap="round" stroke-linejoin="round" d="M 11.067 8.914 C 11.12 8.595 11.396 8.361 11.719 8.361 L 12.362 8.361 C 12.685 8.361 12.962 8.595 13.014 8.914 L 13.102 9.44 C 13.143 9.689 13.328 9.889 13.561 9.986 C 13.795 10.083 14.063 10.07 14.269 9.923 L 14.702 9.613 C 14.966 9.425 15.326 9.455 15.555 9.684 L 16.009 10.139 C 16.239 10.367 16.268 10.728 16.08 10.991 L 15.77 11.424 C 15.623 11.63 15.61 11.898 15.707 12.132 C 15.804 12.366 16.004 12.55 16.254 12.591 L 16.779 12.679 C 17.098 12.732 17.331 13.008 17.331 13.331 L 17.331 13.974 C 17.331 14.298 17.098 14.574 16.779 14.627 L 16.254 14.714 C 16.004 14.755 15.804 14.939 15.707 15.173 C 15.61 15.407 15.623 15.675 15.77 15.881 L 16.08 16.315 C 16.268 16.577 16.238 16.938 16.009 17.167 L 15.554 17.622 C 15.326 17.85 14.965 17.88 14.702 17.692 L 14.268 17.382 C 14.063 17.235 13.795 17.222 13.561 17.319 C 13.328 17.416 13.144 17.616 13.102 17.866 L 13.014 18.391 C 12.962 18.71 12.685 18.944 12.362 18.944 L 11.719 18.944 C 11.395 18.944 11.12 18.71 11.066 18.391 L 10.979 17.866 C 10.937 17.616 10.753 17.416 10.52 17.319 C 10.286 17.222 10.018 17.235 9.812 17.382 L 9.378 17.692 C 9.115 17.88 8.755 17.85 8.526 17.622 L 8.071 17.166 C 7.843 16.938 7.813 16.577 8.001 16.314 L 8.311 15.881 C 8.458 15.675 8.471 15.407 8.374 15.173 C 8.277 14.939 8.077 14.755 7.827 14.714 L 7.302 14.626 C 6.983 14.573 6.749 14.297 6.749 13.974 L 6.749 13.331 C 6.749 13.008 6.983 12.731 7.302 12.678 L 7.827 12.591 C 8.077 12.55 8.277 12.366 8.374 12.132 C 8.471 11.898 8.458 11.63 8.311 11.424 L 8.001 10.991 C 7.813 10.727 7.843 10.367 8.072 10.138 L 8.526 9.684 C 8.755 9.455 9.116 9.425 9.379 9.613 L 9.812 9.923 C 10.018 10.07 10.287 10.083 10.52 9.986 C 10.753 9.889 10.937 9.689 10.979 9.44 L 11.067 8.914 Z" style=""/>
  <path stroke-linecap="round" stroke-linejoin="round" d="M 13.912 13.787 C 13.912 15.144 12.442 15.993 11.266 15.314 C 10.72 14.999 10.384 14.417 10.384 13.787 C 10.384 12.429 11.854 11.58 13.03 12.259 C 13.575 12.574 13.912 13.156 13.912 13.787 Z" style=""/>
</svg>